<svg width="28" height="26" viewBox="0 0 28 26" fill="none" xmlns="http://www.w3.org/2000/svg">
<path d="M1.09079 8.57077H6.77926V25.6511H1.09079V8.57077ZM3.96977 0.349121C2.03887 0.349121 0.763184 1.62481 0.763184 3.2976C0.763184 4.93398 1.98758 6.24442 3.90028 6.24442H3.93503C5.91722 6.24442 7.15816 4.93398 7.14162 3.2976C7.12342 1.62481 5.91722 0.349121 3.96977 0.349121ZM20.7043 8.17366C17.678 8.17366 16.3312 9.83156 15.585 11.0014V8.57077H9.91471C9.91471 8.57077 9.9842 10.1741 9.91471 25.6511H15.585V16.119C15.585 15.6028 15.6379 15.1014 15.7736 14.7242C16.1889 13.7066 17.1171 12.6559 18.689 12.6559C20.7374 12.6559 21.5647 14.2245 21.5647 16.5161V25.6511H27.2366V15.8609C27.2366 10.6208 24.4436 8.17366 20.7043 8.17366Z" fill="white"/>
</svg>
