<svg width="32" height="32" viewBox="0 0 32 32" fill="none" xmlns="http://www.w3.org/2000/svg">
<g clip-path="url(#clip0_295_244)">
<path d="M9 13C9 11.9391 9.42143 10.9217 10.1716 10.1716C10.9217 9.42143 11.9391 9 13 9L15 13L13.46 15.3088C14.0709 16.7684 15.2316 17.9291 16.6912 18.54L19 17L23 19C23 20.0609 22.5786 21.0783 21.8284 21.8284C21.0783 22.5786 20.0609 23 19 23C16.3478 23 13.8043 21.9464 11.9289 20.0711C10.0536 18.1957 9 15.6522 9 13Z" stroke="white" stroke-width="2" stroke-linecap="round" stroke-linejoin="round"/>
<path d="M9.99206 26.3899C12.5127 27.8487 15.4779 28.3411 18.3348 27.7752C21.1917 27.2093 23.7452 25.6237 25.5194 23.3141C27.2936 21.0045 28.1673 18.1284 27.9775 15.2222C27.7878 12.316 26.5477 9.57801 24.4883 7.51864C22.4289 5.45927 19.6909 4.21912 16.7847 4.02941C13.8785 3.83969 11.0025 4.71337 8.69287 6.48754C6.38325 8.26171 4.79768 10.8153 4.23176 13.6722C3.66584 16.529 4.15821 19.4942 5.61706 22.0149L4.05331 26.6836C3.99455 26.8598 3.98603 27.0489 4.02869 27.2297C4.07135 27.4105 4.16351 27.5758 4.29485 27.7071C4.42618 27.8384 4.5915 27.9306 4.77227 27.9733C4.95304 28.0159 5.14212 28.0074 5.31831 27.9486L9.99206 26.3899Z" stroke="white" stroke-width="2" stroke-linecap="round" stroke-linejoin="round"/>
</g>
<defs>
<clipPath id="clip0_295_244">
<rect width="32" height="32" fill="white"/>
</clipPath>
</defs>
</svg>
